<svg width="128" height="128" viewBox="0 0 128 128" fill="none" xmlns="http://www.w3.org/2000/svg">
<g filter="url(#filter0_d_243_1627)">
<rect x="-0.5" width="129" height="128" rx="18" fill="#66D271"/>
<path d="M34.42 34.492C37.3827 34.492 39.7587 35.3867 41.548 37.176C43.3667 38.9653 44.276 41.664 44.276 45.272V59H34.332V46.988C34.332 44.2307 33.3493 42.852 31.384 42.852C30.2693 42.852 29.36 43.248 28.656 44.04C27.9813 44.8027 27.644 46.02 27.644 47.692V59H17.7V26.352H27.644V36.868C29.492 35.284 31.7507 34.492 34.42 34.492ZM73.6642 34.932V59H64.2042V57.02C62.7669 58.6333 60.5669 59.44 57.6042 59.44C55.4922 59.44 53.5416 58.9413 51.7522 57.944C49.9922 56.9173 48.5842 55.4507 47.5282 53.544C46.5016 51.6373 45.9882 49.4373 45.9882 46.944C45.9882 44.4507 46.5016 42.2653 47.5282 40.388C48.5842 38.4813 49.9922 37.0293 51.7522 36.032C53.5416 35.0053 55.4922 34.492 57.6042 34.492C60.2736 34.492 62.3122 35.1813 63.7202 36.56V34.932H73.6642ZM59.9802 51.696C61.1242 51.696 62.0629 51.2853 62.7962 50.464C63.5296 49.6133 63.8962 48.44 63.8962 46.944C63.8962 45.448 63.5296 44.2893 62.7962 43.468C62.0629 42.6467 61.1242 42.236 59.9802 42.236C58.8362 42.236 57.8976 42.6467 57.1642 43.468C56.4309 44.2893 56.0642 45.448 56.0642 46.944C56.0642 48.44 56.4309 49.6133 57.1642 50.464C57.8976 51.2853 58.8362 51.696 59.9802 51.696ZM92.3728 34.492C94.4848 34.492 96.4208 35.0053 98.1808 36.032C99.9701 37.0293 101.378 38.4813 102.405 40.388C103.461 42.2947 103.989 44.4947 103.989 46.988C103.989 49.4813 103.461 51.6813 102.405 53.588C101.378 55.4653 99.9701 56.9173 98.1808 57.944C96.4208 58.9413 94.4848 59.44 92.3728 59.44C89.7035 59.44 87.6648 58.7507 86.2568 57.372V67.536H76.3128V34.932H85.7728V36.912C87.2101 35.2987 89.4101 34.492 92.3728 34.492ZM89.9968 51.696C91.1408 51.696 92.0795 51.2853 92.8128 50.464C93.5461 49.6427 93.9128 48.484 93.9128 46.988C93.9128 45.492 93.5461 44.3333 92.8128 43.512C92.0795 42.6613 91.1408 42.236 89.9968 42.236C88.8528 42.236 87.9141 42.6613 87.1808 43.512C86.4475 44.3333 86.0808 45.492 86.0808 46.988C86.0808 48.484 86.4475 49.6427 87.1808 50.464C87.9141 51.2853 88.8528 51.696 89.9968 51.696Z" fill="white"/>
<path d="M33.76 75.492C35.872 75.492 37.808 76.0053 39.568 77.032C41.3573 78.0293 42.7653 79.4813 43.792 81.388C44.848 83.2947 45.376 85.4947 45.376 87.988C45.376 90.4813 44.848 92.6813 43.792 94.588C42.7653 96.4653 41.3573 97.9173 39.568 98.944C37.808 99.9413 35.872 100.44 33.76 100.44C31.0907 100.44 29.052 99.7507 27.644 98.372V108.536H17.7V75.932H27.16V77.912C28.5973 76.2987 30.7973 75.492 33.76 75.492ZM31.384 92.696C32.528 92.696 33.4667 92.2853 34.2 91.464C34.9333 90.6427 35.3 89.484 35.3 87.988C35.3 86.492 34.9333 85.3333 34.2 84.512C33.4667 83.6613 32.528 83.236 31.384 83.236C30.24 83.236 29.3013 83.6613 28.568 84.512C27.8347 85.3333 27.468 86.492 27.468 87.988C27.468 89.484 27.8347 90.6427 28.568 91.464C29.3013 92.2853 30.24 92.696 31.384 92.696ZM46.7486 75.932H56.6926V100H46.7486V75.932ZM51.7206 73.996C49.9313 73.996 48.4793 73.5267 47.3646 72.588C46.2793 71.62 45.7366 70.4027 45.7366 68.936C45.7366 67.4693 46.2793 66.2667 47.3646 65.328C48.4793 64.36 49.9313 63.876 51.7206 63.876C53.5393 63.876 54.9913 64.3307 56.0766 65.24C57.1619 66.1493 57.7046 67.3227 57.7046 68.76C57.7046 70.2853 57.1619 71.5467 56.0766 72.544C54.9913 73.512 53.5393 73.996 51.7206 73.996ZM75.8842 99.164C74.3882 100.015 72.3495 100.44 69.7682 100.44C66.3948 100.44 63.7988 99.6333 61.9802 98.02C60.1615 96.3773 59.2522 93.928 59.2522 90.672V70.52H69.1962V77.252H74.1242V84.512H69.1962V90.584C69.1962 91.3173 69.3868 91.8893 69.7682 92.3C70.1495 92.7107 70.6482 92.916 71.2642 92.916C72.1148 92.916 72.8628 92.696 73.5082 92.256L75.8842 99.164Z" fill="white"/>
<circle cx="89" cy="87" r="12" fill="#FF8811"/>
</g>
<defs>
<filter id="filter0_d_243_1627" x="-24.5" y="-24" width="177" height="176" filterUnits="userSpaceOnUse" color-interpolation-filters="sRGB">
<feFlood flood-opacity="0" result="BackgroundImageFix"/>
<feColorMatrix in="SourceAlpha" type="matrix" values="0 0 0 0 0 0 0 0 0 0 0 0 0 0 0 0 0 0 127 0" result="hardAlpha"/>
<feOffset/>
<feGaussianBlur stdDeviation="12"/>
<feComposite in2="hardAlpha" operator="out"/>
<feColorMatrix type="matrix" values="0 0 0 0 0.4 0 0 0 0 0.823529 0 0 0 0 0.443137 0 0 0 0.3 0"/>
<feBlend mode="normal" in2="BackgroundImageFix" result="effect1_dropShadow_243_1627"/>
<feBlend mode="normal" in="SourceGraphic" in2="effect1_dropShadow_243_1627" result="shape"/>
</filter>
</defs>
</svg>
