<svg width="24" height="24" viewBox="0 0 24 24" fill="none" xmlns="http://www.w3.org/2000/svg">
<path fill-rule="evenodd" clip-rule="evenodd" d="M8.96644 21.1736L3.68644 21.9336C3.27991 21.9884 2.8695 21.8648 2.56089 21.5946C2.25229 21.3243 2.07564 20.9338 2.07644 20.5236V20.3136L2.83644 15.0336C2.93511 14.3179 3.26524 13.6541 3.77644 13.1436L13.5264 3.40356C15.4883 1.5087 18.6069 1.5358 20.5355 3.46447C22.4642 5.39314 22.4913 8.51167 20.5964 10.4736L10.8564 20.2336C10.3459 20.7448 9.68214 21.0749 8.96644 21.1736ZM4.83644 14.2536C4.57082 14.5301 4.39032 14.8773 4.31644 15.2536L3.62644 20.4636L8.79644 19.7336C9.17273 19.6597 9.51985 19.4792 9.79644 19.2136L19.5364 9.46356C20.2109 8.80662 20.5913 7.90506 20.5913 6.96356C20.5913 6.02206 20.2109 5.1205 19.5364 4.46356C18.8814 3.80464 17.9906 3.43414 17.0614 3.43414C16.1323 3.43414 15.2415 3.80464 14.5864 4.46356L4.83644 14.2536Z" fill="white"/>
<path d="M17.6264 7.43356C17.9018 7.13805 17.8937 6.67755 17.6081 6.39194C17.3224 6.10633 16.8619 6.0982 16.5664 6.37356L12.3564 10.5836C12.064 10.8764 12.064 11.3507 12.3564 11.6436C12.6493 11.936 13.1236 11.936 13.4164 11.6436L17.6264 7.43356Z" fill="white"/>
<path fill-rule="evenodd" clip-rule="evenodd" d="M8.96644 21.1736L3.68644 21.9336C3.27991 21.9884 2.8695 21.8648 2.56089 21.5946C2.25229 21.3243 2.07564 20.9338 2.07644 20.5236V20.3136L2.83644 15.0336C2.93511 14.3179 3.26524 13.6541 3.77644 13.1436L13.5264 3.40356C15.4883 1.5087 18.6069 1.5358 20.5355 3.46447C22.4642 5.39314 22.4913 8.51167 20.5964 10.4736L10.8564 20.2336C10.3459 20.7448 9.68214 21.0749 8.96644 21.1736ZM4.83644 14.2536C4.57082 14.5301 4.39032 14.8773 4.31644 15.2536L3.62644 20.4636L8.79644 19.7336C9.17273 19.6597 9.51985 19.4792 9.79644 19.2136L19.5364 9.46356C20.2109 8.80662 20.5913 7.90506 20.5913 6.96356C20.5913 6.02206 20.2109 5.1205 19.5364 4.46356C18.8814 3.80464 17.9906 3.43414 17.0614 3.43414C16.1323 3.43414 15.2415 3.80464 14.5864 4.46356L4.83644 14.2536Z" stroke="white"/>
<path d="M17.6264 7.43356C17.9018 7.13805 17.8937 6.67755 17.6081 6.39194C17.3224 6.10633 16.8619 6.0982 16.5664 6.37356L12.3564 10.5836C12.064 10.8764 12.064 11.3507 12.3564 11.6436C12.6493 11.936 13.1236 11.936 13.4164 11.6436L17.6264 7.43356Z" stroke="white"/>
</svg>
